HD DESI ROCKERS GROUP RELEASES


INFO:

Title..................: Home Alone 1
Year...................: 1990
Genre..................: Comedy
Directer...............: Chris Columbus
Run time...............: 1h 42mn 50sec
size ..................: 878 MB
Languages..............: English.Hindi

___________________________________________________________________________

Video

Format                           : MKV
Duration                         : 1h 42mn 50sec
Display aspect ratio             : 16:9
Resolution                       : 576*320
Bit Rate			 : 785 Kbps
Stream size                      : 578 MiB (67%) 
_______________________________________________________________________________


Audio #1 :English
ID                               : 1
Format                           : MPEG 1 Layer 3
Duration                         : 1h 42mn 50sec
Bit rate mode                    : Constant
Bit rate                         : 128 Kbps
Channel(s)                       : 2 channels
Channel positions                : Front: L R
Sampling rate                    : 48.0 KHz
Stream size                      : 95 MiB (11%) 

____________________________________________________________________________


Audio #2 :Hindi
ID                               : 2
Format                           : MPEG 1 Layer 3 
Duration                         : 1h 42mn 50sec
Bit rate mode                    : Constant
Bit rate                         : 256 Kbps
Channel(s)                       : 2 channels
Channel positions                : Front: L R
Sampling rate                    : 44.1 KHz
Stream size                      : 188 MiB (22%)
__________________________________________________________________________



Seeding at 2:00 AM ISt - 8:00 AM ISt
Please wait during seeding
Plz seed after download
Thankyou...


Screens

 
http://img31.imageshack.us/img31/8939/93659433.jpg 
http://img23.imageshack.us/img23/9095/92964254.jpg 
http://img265.imageshack.us/img265/2606/30875969.jpg 
http://img401.imageshack.us/img401/6167/22510663.jpg 
http://img227.imageshack.us/img227/456/79771413.jpg 
http://img46.imageshack.us/img46/1547/76729146.jpg 
http://img171.imageshack.us/img171/8123/13057377.jpg
